<svg width="36" height="34" viewBox="0 0 36 34" fill="none" xmlns="http://www.w3.org/2000/svg">
<path d="M12.9585 30.6955C12.9585 30.6955 26.0549 30.9402 26.4685 30.8179C26.4685 30.8179 27.9849 30.2065 26.8821 30.6956C25.7792 31.1848 26.7442 32.1861 26.7442 33.1411H12.9585V30.6955Z" fill="#1C6CFE"/>
<path d="M0 0.125H27.8471V7.78807H23.7114V3.79348H15.9914V33.875H11.8557V3.79348H4.1357V7.78807H0V0.125Z" fill="#1C6CFE"/>
<path d="M23.7615 33.875C30.1614 33.875 33.3613 29.8479 33.3613 21.7936C33.3613 18.6411 32.5778 16.1191 31.0106 14.2275C29.4435 12.3259 27.316 11.375 24.6283 11.375L19.7848 11.375V14.3597H24.6764C28.8593 14.5122 30.6035 16.7648 30.6035 22.053C30.6035 24.9004 30.0782 27.1275 29.0276 28.7343C27.977 30.3309 26.5325 31.1292 24.6939 31.1292C23.8272 31.1292 23.1005 31.2309 22.5139 31.1292H15.9914V33.875H23.7615Z" fill="#1C6CFE"/>
<path d="M24.5015 33.875C31.5109 33.875 35.0156 29.8479 35.0156 21.7936C35.0156 18.6411 34.1574 16.1191 32.441 14.2275C30.7246 12.3259 28.3946 11.375 25.4508 11.375L20.1461 11.375V14.3597H25.5035C30.0848 14.5122 31.9952 16.7648 31.9952 22.053C31.9952 24.9004 31.4198 27.1275 30.2692 28.7343C29.1185 30.3309 27.5364 31.1292 25.5227 31.1292C24.5735 31.1292 23.7776 31.2309 23.1351 31.1292H15.9914V33.875H24.5015Z" fill="#1C6CFE"/>
</svg>
